<svg viewBox="0 0 15 14" fill="none" xmlns="http://www.w3.org/2000/svg"><path d="M8.11228 1.12501L14.8599 12.8125C14.922 12.9202 14.9548 13.0423 14.9548 13.1667C14.9548 13.291 14.922 13.4132 14.8599 13.5208C14.7977 13.6285 14.7083 13.7179 14.6006 13.7801C14.4929 13.8423 14.3708 13.875 14.2464 13.875H0.751284C0.626947 13.875 0.504801 13.8423 0.397124 13.7801C0.289446 13.7179 0.20003 13.6285 0.137863 13.5208C0.0756958 13.4132 0.042968 13.291 0.0429688 13.1667C0.0429695 13.0423 0.0756989 12.9202 0.137867 12.8125L6.88545 1.12501C6.94762 1.01734 7.03704 0.927927 7.14472 0.865764C7.25239 0.8036 7.37453 0.770874 7.49887 0.770874C7.6232 0.770874 7.74534 0.8036 7.85302 0.865764C7.96069 0.927927 8.05011 1.01734 8.11228 1.12501ZM6.79053 10.3333V11.75H8.2072V10.3333H6.79053ZM6.79053 5.37501V8.91668H8.2072V5.37501H6.79053Z" fill="currentColor"/></svg>