<svg xmlns="http://www.w3.org/2000/svg" fill="none" viewBox="0 0 100 100"><path fill="currentColor" d="M24.792 25h-1.417l16.75-16.75c5.458-5.438 14.292-5.438 19.75 0L76.625 25h-1.417c-3.333 0-6.479 1.292-8.833 3.667L52.208 42.77a3.106 3.106 0 0 1-4.416 0L33.625 28.667C31.271 26.292 28.125 25 24.792 25ZM75.208 75h1.417l-16.75 16.75c-5.458 5.437-14.292 5.437-19.75 0L23.375 75h1.417c3.333 0 6.479-1.292 8.833-3.667L47.792 57.23a3.106 3.106 0 0 1 4.416 0l14.167 14.104c2.354 2.375 5.5 3.667 8.833 3.667Z"/><path fill="currentColor" d="M91.75 59.875 80.792 70.833h-5.584c-2.229 0-4.312-.875-5.895-2.437L55.145 54.27c-2.834-2.834-7.459-2.834-10.292 0L30.688 68.396c-1.584 1.562-3.667 2.437-5.896 2.437h-5.584L8.25 59.875c-5.438-5.459-5.438-14.292 0-19.75l10.958-10.959h5.584c2.229 0 4.312.875 5.895 2.438l14.167 14.125A7.272 7.272 0 0 0 50 47.854c1.854 0 3.73-.708 5.146-2.125l14.166-14.125c1.584-1.563 3.667-2.438 5.896-2.438h5.584L91.75 40.126c5.438 5.458 5.438 14.291 0 19.75Z"/></svg>